<?xml version="1.0" encoding="UTF-8"?>
<svg id="Layer_2" data-name="Layer 2" xmlns="http://www.w3.org/2000/svg" viewBox="0 0 100 113.95">
  <g id="Layer_1-2" data-name="Layer 1">
    <g>
      <rect x="88.89" y="47.22" width="11.11" height="33.33"/>
      <rect x="44.44" y="91.73" width="11.11" height="33.33" transform="translate(-58.4 158.4) rotate(-90)"/>
      <rect x="44.44" width="11.11" height="61.11"/>
      <polygon points="77.78 25 66.67 25 66.67 36.11 77.78 36.11 77.78 47.22 88.89 47.22 88.89 36.11 88.89 25 77.78 25"/>
      <polygon points="88.89 91.67 88.89 80.56 77.78 80.56 77.78 91.67 66.67 91.67 66.67 102.78 77.78 102.78 88.89 102.78 88.89 91.67"/>
      <rect y="47.22" width="11.11" height="33.33" transform="translate(11.11 127.78) rotate(180)"/>
      <polygon points="22.22 102.78 33.33 102.78 33.33 91.67 22.22 91.67 22.22 80.56 11.11 80.56 11.11 91.67 11.11 102.78 22.22 102.78"/>
      <polygon points="11.11 36.11 11.11 47.22 22.22 47.22 22.22 36.11 33.33 36.11 33.33 25 22.22 25 11.11 25 11.11 36.11"/>
    </g>
  </g>
</svg>