<?xml version="1.0" encoding="UTF-8"?>
<svg id="Layer_2" data-name="Layer 2" xmlns="http://www.w3.org/2000/svg" viewBox="0 0 100 109.78">
  <g id="Layer_1-2" data-name="Layer 1">
    <g>
      <rect x="88.89" y="43.05" width="11.11" height="33.33"/>
      <rect x="44.44" y="87.55" width="11.11" height="33.33" transform="translate(-54.22 154.22) rotate(-90)"/>
      <rect x="44.44" width="11.11" height="52.76"/>
      <polygon points="77.78 20.83 66.67 20.83 66.67 31.94 77.78 31.94 77.78 43.05 88.89 43.05 88.89 31.94 88.89 20.83 77.78 20.83"/>
      <polygon points="88.89 87.49 88.89 76.38 77.78 76.38 77.78 87.49 66.67 87.49 66.67 98.6 77.78 98.6 88.89 98.6 88.89 87.49"/>
      <rect y="43.05" width="11.11" height="33.33" transform="translate(11.11 119.43) rotate(180)"/>
      <polygon points="22.22 98.6 33.33 98.6 33.33 87.49 22.22 87.49 22.22 76.38 11.11 76.38 11.11 87.49 11.11 98.6 22.22 98.6"/>
      <polygon points="11.11 31.94 11.11 43.05 22.22 43.05 22.22 31.94 33.33 31.94 33.33 20.83 22.22 20.83 11.11 20.83 11.11 31.94"/>
    </g>
  </g>
</svg>