<?xml version="1.0" encoding="UTF-8"?>
<svg id="Layer_2" data-name="Layer 2" xmlns="http://www.w3.org/2000/svg" viewBox="0 0 100 100.06">
  <g id="Layer_1-2" data-name="Layer 1">
    <g>
      <rect x="88.89" y="33.33" width="11.11" height="33.33"/>
      <rect x="44.44" y="77.84" width="11.11" height="33.33" transform="translate(-44.51 144.51) rotate(-90)"/>
      <rect x="44.44" y="-11.11" width="11.11" height="33.33" transform="translate(44.44 55.56) rotate(-90)"/>
      <rect x="45" y="21.42" width="10" height="35.62" transform="translate(100 78.47) rotate(180)"/>
      <rect x="55" y="37.05" width="10" height="30" transform="translate(7.95 112.05) rotate(-90)"/>
      <polygon points="77.78 11.11 66.67 11.11 66.67 22.22 77.78 22.22 77.78 33.33 88.89 33.33 88.89 22.22 88.89 11.11 77.78 11.11"/>
      <polygon points="88.89 77.78 88.89 66.67 77.78 66.67 77.78 77.78 66.67 77.78 66.67 88.89 77.78 88.89 88.89 88.89 88.89 77.78"/>
      <rect y="33.33" width="11.11" height="33.33" transform="translate(11.11 100) rotate(180)"/>
      <polygon points="22.22 88.89 33.33 88.89 33.33 77.78 22.22 77.78 22.22 66.67 11.11 66.67 11.11 77.78 11.11 88.89 22.22 88.89"/>
      <polygon points="11.11 22.22 11.11 33.33 22.22 33.33 22.22 22.22 33.33 22.22 33.33 11.11 22.22 11.11 11.11 11.11 11.11 22.22"/>
    </g>
  </g>
</svg>